<svg xmlns="http://www.w3.org/2000/svg" width="249" height="71" viewBox="0 0 249 71">
    <g fill="#FFF" fill-rule="evenodd">
        <path d="M1.248 19.402l10.154 6.004 20.673-12.228V1.165L1.248 19.402zm10.154 6.924a.423.423 0 0 1-.21-.058L.209 19.771A.425.425 0 0 1 0 19.402c0-.154.078-.294.209-.371L32.28.057a.41.41 0 0 1 .416 0c.13.076.21.217.21.37v12.996a.43.43 0 0 1-.21.37L11.61 26.268a.42.42 0 0 1-.207.058z"/>
        <path d="M32.657 12.639l20.676 11.708 10.137-5.774L32.642 1.116l.015 11.523zm20.676 12.59a.445.445 0 0 1-.21-.056L32.032 13.23a.4.4 0 0 1-.208-.353L31.811.409c0-.146.08-.28.207-.354a.424.424 0 0 1 .416 0l32.074 18.164c.127.072.21.208.21.353 0 .147-.08.282-.21.355L53.54 25.173a.444.444 0 0 1-.208.056zM.864 19.799L.849 55.887l10.36-5.938.005-24.205L.864 19.8zm-.44 37.24A.424.424 0 0 1 0 56.619l.015-37.55c0-.152.08-.29.21-.364a.429.429 0 0 1 .424 0l11.204 6.433a.418.418 0 0 1 .213.366l-.009 24.689a.42.42 0 0 1-.213.366L.64 56.984a.44.44 0 0 1-.215.056z"/>
        <path d="M32.644 37.676l20.272 11.65-.003-23.302-20.27-11.725v23.377zm20.688 12.782a.418.418 0 0 1-.21-.056L32.017 38.274a.414.414 0 0 1-.206-.358V13.578a.415.415 0 0 1 .625-.358L53.54 25.425a.42.42 0 0 1 .206.36l.003 24.258c0 .15-.08.285-.21.359a.415.415 0 0 1-.207.056z"/>
        <path d="M12.21 49.907l20.154 11.716 20.142-11.717-20.13-11.714L12.21 49.907zm20.154 12.617a.423.423 0 0 1-.208-.055l-20.982-12.2a.42.42 0 0 1-.205-.362.42.42 0 0 1 .205-.362L32.17 37.35a.415.415 0 0 1 .41 0L53.54 49.545a.413.413 0 0 1 0 .721L32.57 62.469a.414.414 0 0 1-.206.055zM144.965 47.93V26.56c0-.453.16-.828.48-1.149a1.544 1.544 0 0 1 1.146-.482h3.185c.47 0 .864.155 1.172.482.323.321.482.696.482 1.148v21.336c0 .446-.165.827-.492 1.141-.324.306-.707.47-1.162.47h-3.185c-.439 0-.828-.154-1.146-.448a1.507 1.507 0 0 1-.48-1.129zM156.348 43.212c0-.673.195-1.155.598-1.44.4-.302.79-.433 1.162-.433h2.043c1.03 0 1.805.554 2.35 1.67.535 1.128 1.74 1.679 3.614 1.679l6.003.12c2.012 0 3.014-.654 3.014-1.975 0-.993-1.222-1.767-3.689-2.348-1.086-.25-2.305-.516-3.624-.774a40.932 40.932 0 0 1-3.955-.97c-1.308-.393-2.51-.841-3.61-1.377a6.981 6.981 0 0 1-2.667-2.162c-.677-.915-1.013-2.004-1.013-3.253 0-2.29.807-4.06 2.447-5.3 1.631-1.237 4.442-1.86 8.434-1.86l4.351.11c2.35 0 4.454.59 6.335 1.803 1.881 1.208 2.816 2.703 2.816 4.515 0 .673-.193 1.165-.593 1.465-.404.284-.778.442-1.146.442h-2.043c-1.029 0-1.813-.565-2.35-1.692-.543-1.13-1.74-1.69-3.612-1.69l-5.165-.104c-2.013 0-3.012.656-3.012 1.975 0 .717.631 1.302 1.905 1.759 1.276.465 2.822.87 4.633 1.213 1.807.35 3.628.767 5.457 1.257 1.826.494 3.378 1.299 4.648 2.43 1.278 1.12 1.915 2.527 1.915 4.208 0 2.3-.815 4.07-2.458 5.312-1.643 1.236-4.448 1.85-8.427 1.85l-5.2-.101c-2.339 0-4.453-.596-6.334-1.808-1.885-1.201-2.827-2.708-2.827-4.521M186.497 47.861V26.585a1.6 1.6 0 0 1 .466-1.173 1.5 1.5 0 0 1 1.13-.483h6.982c.44 0 .86.156 1.263.483.4.32.67.695.805 1.147l5.057 14.636 5.057-14.636c.134-.452.404-.827.813-1.147.395-.327.813-.483 1.26-.483h6.976c.45 0 .819.156 1.122.483.305.32.455.706.455 1.173v21.276a1.598 1.598 0 0 1-1.607 1.646h-3.082c-.452 0-.828-.165-1.146-.47-.318-.315-.466-.701-.466-1.176V31.112l-6.056 16.853c-.153.417-.44.784-.838 1.093-.395.294-.82.449-1.271.449h-2.45c-.447 0-.866-.155-1.26-.449a2.692 2.692 0 0 1-.851-1.093l-6.034-16.853v16.749c0 .475-.158.861-.465 1.176-.321.305-.696.47-1.141.47h-3.088c-.443 0-.827-.165-1.151-.47a1.593 1.593 0 0 1-.48-1.176M100.262 25.155H87.178c-.44 0-.82.152-1.127.483a1.593 1.593 0 0 0-.469 1.145v21.335c0 .45.162.837.48 1.15.322.312.705.463 1.156.463h3.221c.445 0 .824-.151 1.135-.463.311-.313.475-.7.475-1.15v-18.11h6.25c1.921 0 3.385.32 4.384.969.986.636 1.487 1.377 1.487 3.215 0 1.854-.5 3.096-1.487 3.749-.999.643-2.463.958-4.384.958 0 0-2.814-.232-2.814 2.319v2.538h4.777c6.913 0 10.374-3.184 10.374-9.564 0-6.363-3.46-9.037-10.374-9.037M236.17 38.71s-2.82-.276-2.82 2.259v2.57h8.774v4.357c0 .462.148.853.455 1.163.3.294.684.448 1.156.448h3.22c.449 0 .834-.154 1.157-.448.316-.31.477-.685.477-1.13V26.518c0-.422-.145-.785-.42-1.105a1.318 1.318 0 0 0-1.05-.482h-9.244c-6.424.009-10.217 2.24-11.385 6.683l-4.31 16.317c-.03.144-.044.319-.054.517-.006.189.09.417.28.673.2.268.513.387.963.387h3.378c.45 0 .872-.154 1.274-.448a2.09 2.09 0 0 0 .769-1.163l1.152-4.321 1.263-4.856 1.509-5.497c.288-1.058.834-1.884 1.655-2.505.818-.63 1.773-.931 2.87-.931h4.885v8.925h-5.954zM140.44 47.895l-3.123-4.959c-.746-1.155-1.422-2.045-2-2.659-.584-.616-1.222-1.049-1.904-1.29 4.31-.856 6.462-2.942 6.462-6.257 0-2.393-.841-4.29-2.51-5.692-1.68-1.41-3.82-2.109-6.44-2.109H116.78c-.44 0-.82.155-1.127.483-.301.32-.461.695-.461 1.147v21.336c0 .446.16.827.477 1.142.32.305.705.47 1.155.47h3.222a1.58 1.58 0 0 0 1.136-.47c.31-.315.473-.696.473-1.142V29.786h7.3c1.178 0 2.216.222 3.112.692.897.471 1.347 1.221 1.347 2.252 0 1.021-.45 1.771-1.347 2.241-.896.47-1.934.71-3.112.71h-2.99v4.848c1.645.054 3.062.975 4.223 2.804l2.919 4.562c.27.446.669.827 1.193 1.142.522.305.993.47 1.427.47h4.11c.588 0 .88-.239.88-.733 0-.268-.09-.556-.275-.879"/>
        <path d="M132.583 35.68h-5.957s-2.816-.277-2.816 2.271v2.571h8.773M147.14 68.376h-1.181v-5.14c0-.43.018-.82.045-1.214.738-.343 1.832-.587 2.842-.587.823 0 1.38.184 1.739.49a6.015 6.015 0 0 1 2.369-.49c2.095 0 2.4 1.155 2.4 2.516v4.425h-1.17v-4.261c0-1.175-.287-1.713-1.547-1.713-.413 0-1.038.108-1.53.376.114.353.145.756.145 1.173v4.425h-1.19v-4.261c0-1.175-.274-1.713-1.544-1.713-.39 0-1.003.12-1.342.273-.035.302-.035.682-.035 1.002v4.699zM160.623 64.7a29.844 29.844 0 0 0 2.03-.16c.016-.127.023-.304.023-.415 0-1.113-.462-1.768-1.787-1.768-1.592 0-1.873.9-1.873 2.415l1.607-.071zm-2.755.257c0-2.488.759-3.523 3.02-3.523 2.39 0 2.976 1.25 2.976 3.217 0 .173 0 .389-.026.568-.785.147-2.412.3-3.364.34l-1.433.065c.093 1.359.645 1.89 2.058 1.89.909 0 1.742-.092 2.44-.18l.113.893c-.767.127-1.605.252-2.917.252-2.272 0-2.867-1.496-2.867-3.522zM169.243 62.375c-1.88 0-2.064.913-2.064 2.582 0 1.573.276 2.578 1.94 2.578.491 0 1.091-.082 1.474-.263.024-.31.031-.7.031-1.003v-3.656a4.56 4.56 0 0 0-1.38-.238zm1.381-3.503h1.171v7.814c0 .42-.009.819-.042 1.214-.752.416-1.75.579-2.635.579-2.207 0-3.13-.84-3.13-3.522 0-2.632.862-3.522 2.931-3.522.57 0 1.157.08 1.705.223v-2.786zM174.518 68.376h1.193v-6.849h-1.193v6.85zm-.121-8.806c0-.58.161-.776.715-.776.549 0 .713.195.713.776 0 .576-.154.778-.713.778-.557 0-.715-.202-.715-.778zM183.063 64.957c0-1.967-.421-2.555-1.844-2.555-1.397 0-1.848.505-1.848 2.555 0 2.04.45 2.558 1.847 2.558 1.413 0 1.845-.597 1.845-2.558m-4.873 0c0-2.57.802-3.522 3.029-3.522s3.024.99 3.024 3.522c0 2.517-.797 3.522-3.024 3.522s-3.03-.964-3.03-3.522M187.65 63.236c0 .821.76.94 1.548 1.19 1.284.404 2.14.707 2.14 2.079 0 1.543-1.147 1.974-2.642 1.974a10.7 10.7 0 0 1-2.27-.258l.121-.897c.538.098 1.238.173 1.785.173.682 0 1.802.008 1.802-.931 0-.842-.65-.942-1.518-1.207-1.085-.329-2.15-.597-2.15-2.04 0-1.462 1.023-1.885 2.39-1.885.905 0 1.556.081 2.33.244l-.116.885a9.507 9.507 0 0 0-1.718-.177c-.67 0-1.702.022-1.702.85M200.828 62.375c-1.868 0-2.069.913-2.069 2.582 0 1.573.287 2.578 1.956 2.578.491 0 1.08-.082 1.463-.263.022-.31.041-.7.041-1.003v-3.656a4.707 4.707 0 0 0-1.39-.238zm1.391-3.503h1.172v7.814c0 .42-.014.819-.045 1.214-.759.416-1.75.579-2.63.579-2.218 0-3.139-.84-3.139-3.522 0-2.632.865-3.522 2.928-3.522.58 0 1.173.08 1.714.223v-2.786zM208.647 64.7a30.13 30.13 0 0 0 2.038-.16c.01-.127.016-.304.016-.415 0-1.113-.455-1.768-1.785-1.768-1.595 0-1.874.9-1.874 2.415l1.605-.071zm-2.75.257c0-2.488.754-3.523 3.02-3.523 2.383 0 2.967 1.25 2.967 3.217 0 .173-.006.389-.02.568-.786.147-2.408.3-3.369.34l-1.428.065c.107 1.359.65 1.89 2.056 1.89.908 0 1.743-.092 2.442-.18l.104.893c-.764.127-1.598.252-2.909.252-2.273 0-2.863-1.496-2.863-3.522zM221.136 67.535c1.87 0 2.07-.911 2.07-2.578 0-1.574-.288-2.582-1.962-2.582-.492 0-1.08.085-1.459.265-.03.312-.045.7-.045 1.005v3.654c.394.136.957.236 1.396.236zm-1.396 3.367h-1.173v-7.676c0-.43.023-.818.051-1.218.758-.41 1.751-.574 2.626-.574 2.217 0 3.143.84 3.143 3.523 0 2.628-.866 3.522-2.933 3.522a7.584 7.584 0 0 1-1.714-.224v2.647zM229.291 67.556c.533 0 1.151-.06 1.664-.268.02-.305.031-.693.031-1v-1.405c-.697.008-1.613.033-2.262.164-.744.163-1.045.44-1.045 1.31 0 .976.517 1.2 1.612 1.2zm-2.411-5.878a14.582 14.582 0 0 1 2.589-.244c1.486 0 2.671.4 2.671 2.121v3.13c0 .421-.014.82-.044 1.215-.794.416-1.778.58-2.954.58-1.847 0-2.63-.648-2.63-2.089 0-1.196.51-1.948 1.778-2.144.802-.123 1.743-.15 2.696-.19v-.166c0-1.034-.401-1.505-1.669-1.505-.82 0-1.628.09-2.343.187l-.094-.895zM235.745 64.883c0 1.63.216 2.5 2.058 2.5.45 0 1.005-.102 1.388-.235v-3.502c0-.306-.012-.694-.03-1.005-.395-.181-.985-.266-1.466-.266-1.647 0-1.95.983-1.95 2.509zm-.629 4.968c.723.102 1.597.206 2.4.206 1.28 0 1.675-.474 1.675-1.518V68.1a7.65 7.65 0 0 1-1.706.217c-2.047 0-2.932-.843-2.932-3.434 0-2.623.958-3.448 3.142-3.448.876 0 1.868.163 2.625.572.033.4.048.788.048 1.22v5.648c0 1.734-1.2 2.123-2.673 2.123-.992 0-1.92-.136-2.68-.26l.101-.888zM247.76 64.957c0-1.967-.43-2.555-1.854-2.555-1.404 0-1.838.505-1.838 2.555 0 2.04.434 2.558 1.838 2.558 1.416 0 1.853-.597 1.853-2.558m-4.88 0c0-2.57.81-3.522 3.027-3.522 2.237 0 3.03.99 3.03 3.522 0 2.517-.793 3.522-3.03 3.522-2.217 0-3.027-.964-3.027-3.522"/>
    </g>
</svg>
